# xmcd
#
# Track frame offsets:
#	150
#	16450
#	38817
#	55815
#	74815
#	82497
#	103607
#	124550
#	131150
#	145615
#	163827
#	193155
#
# Disc length: 2790 seconds
#
# Revision: 1
# Processed by: cddbd v1.5.1PL0 Copyright (c) Steve Scherf et al.
# Submitted via: CDex 1.50Beta5
#
DISCID=b50ae40c
DTITLE=スケボーキング - ムシャブルイ
DYEAR=1900
DGENRE=
TTITLE0=SBKのテーマ
TTITLE1=風
TTITLE2=太陽
TTITLE3=危機一髪
TTITLE4=雨〜INTERLUDE〜
TTITLE5=神経衰弱
TTITLE6=つるみたい つるまない
TTITLE7=パンチドランカー〜INTERLUDE〜
TTITLE8=のみ会98
TTITLE9=ビンゴ
TTITLE10=いつかどこか(TSUTCHIE MIX)
TTITLE11=太陽(DJバリ”K”〜ん REMIX)
EXTD=
EXTT0=
EXTT1=
EXTT2=
EXTT3=
EXTT4=
EXTT5=
EXTT6=
EXTT7=
EXTT8=
EXTT9=
EXTT10=
EXTT11=
PLAYORDER=
